<svg width="233" height="113" viewBox="0 0 233 113" fill="none" xmlns="http://www.w3.org/2000/svg">
<path d="M0.877344 103V75.8H10.5973C14.4373 75.8 17.3173 77.0667 19.2373 79.6C21.1573 82.1333 22.1173 85.4 22.1173 89.4C22.1173 93.4 21.1573 96.6667 19.2373 99.2C17.3173 101.733 14.4373 103 10.5973 103H0.877344ZM10.5973 78.68H4.07734V100.12H10.5973C13.3707 100.12 15.4507 99.1333 16.8373 97.16C18.224 95.16 18.9173 92.5733 18.9173 89.4C18.9173 86.2267 18.224 83.6533 16.8373 81.68C15.4507 79.68 13.3707 78.68 10.5973 78.68ZM27.012 78.64C26.692 78.2667 26.532 77.8 26.532 77.24C26.532 76.68 26.692 76.2267 27.012 75.88C27.332 75.5067 27.7987 75.32 28.412 75.32C29.0254 75.32 29.5054 75.5067 29.852 75.88C30.1987 76.2533 30.372 76.7067 30.372 77.24C30.372 77.7733 30.1987 78.2267 29.852 78.6C29.5054 78.9733 29.0254 79.16 28.412 79.16C27.7987 79.16 27.332 78.9867 27.012 78.64ZM26.932 103V83H29.972V103H26.932ZM52.5264 101.64C52.5264 104.84 51.5931 107.453 49.7264 109.48C47.8864 111.533 45.5797 112.56 42.8064 112.56C40.0597 112.56 37.5797 111.787 35.3664 110.24L36.8864 107.88C37.5264 108.413 38.3797 108.853 39.4464 109.2C40.5131 109.547 41.5931 109.72 42.6864 109.72C44.6597 109.72 46.2864 108.96 47.5664 107.44C48.8464 105.92 49.4864 103.973 49.4864 101.6V99.72C47.9931 102.28 45.8997 103.56 43.2064 103.56C40.9131 103.56 39.0331 102.693 37.5664 100.96C36.0997 99.2267 35.3664 96.7333 35.3664 93.48C35.3664 90.2 36.2864 87.5467 38.1264 85.52C39.9931 83.4667 42.2997 82.44 45.0464 82.44C47.8197 82.44 50.3131 83.2133 52.5264 84.76V101.64ZM38.4064 93.4C38.4064 95.8 38.9131 97.64 39.9264 98.92C40.9397 100.2 42.2331 100.84 43.8064 100.84C45.4064 100.84 46.7531 100.04 47.8464 98.44C48.9397 96.84 49.4864 94.56 49.4864 91.6V86.16C48.1531 85.4933 46.7264 85.16 45.2064 85.16C43.2331 85.16 41.6064 85.9333 40.3264 87.48C39.0464 89 38.4064 90.9733 38.4064 93.4ZM59.5902 78.64C59.2702 78.2667 59.1102 77.8 59.1102 77.24C59.1102 76.68 59.2702 76.2267 59.5902 75.88C59.9102 75.5067 60.3768 75.32 60.9902 75.32C61.6035 75.32 62.0835 75.5067 62.4302 75.88C62.7768 76.2533 62.9502 76.7067 62.9502 77.24C62.9502 77.7733 62.7768 78.2267 62.4302 78.6C62.0835 78.9733 61.6035 79.16 60.9902 79.16C60.3768 79.16 59.9102 78.9867 59.5902 78.64ZM59.5102 103V83H62.5502V103H59.5102ZM67.3045 85.6V83H70.3445L71.3045 77H73.3845V83H78.0645V85.6H73.3845V98.64C73.3845 100.107 73.9845 100.84 75.1845 100.84C76.0912 100.84 77.0779 100.453 78.1445 99.68L79.2645 101.72C77.7179 102.947 76.2112 103.56 74.7445 103.56C73.2779 103.56 72.1712 103.213 71.4245 102.52C70.7045 101.8 70.3445 100.507 70.3445 98.64V85.6H67.3045ZM89.0267 103.56C86.7334 103.56 84.8534 102.693 83.3867 100.96C81.9201 99.2267 81.1867 96.7333 81.1867 93.48C81.1867 90.2 82.1067 87.5467 83.9467 85.52C85.8134 83.4667 88.1201 82.44 90.8667 82.44C93.6401 82.44 96.1334 83.2133 98.3467 84.76V99L98.7467 103L96.1067 103.2L95.4267 99.6C93.9334 102.24 91.8001 103.56 89.0267 103.56ZM84.2267 93.4C84.2267 95.8 84.7334 97.64 85.7467 98.92C86.7601 100.2 88.0534 100.84 89.6267 100.84C91.2267 100.84 92.5734 100.053 93.6667 98.48C94.7601 96.88 95.3067 94.6267 95.3067 91.72V86.16C93.9734 85.4933 92.5467 85.16 91.0267 85.16C89.0534 85.16 87.4267 85.9333 86.1467 87.48C84.8667 89 84.2267 90.9733 84.2267 93.4ZM104.965 75H108.005V98.6C108.005 100.067 108.605 100.8 109.805 100.8C110.578 100.8 111.338 100.533 112.085 100L113.285 102.16C111.818 103.093 110.432 103.56 109.125 103.56C107.818 103.56 106.792 103.2 106.045 102.48C105.325 101.76 104.965 100.467 104.965 98.6V75ZM144.313 108.72C142.659 109.787 141.059 110.32 139.513 110.32C137.993 110.32 136.753 109.8 135.793 108.76C134.859 107.72 134.393 106.067 134.393 103.8V103.56C131.059 103.187 128.566 101.72 126.913 99.16C125.286 96.5733 124.473 93.2533 124.473 89.2C124.473 85.12 125.419 81.76 127.313 79.12C129.233 76.48 132.099 75.16 135.913 75.16C138.499 75.16 140.686 75.8133 142.473 77.12C145.779 79.5733 147.433 83.6667 147.433 89.4C147.433 93.2933 146.593 96.5333 144.913 99.12C143.259 101.707 140.766 103.187 137.433 103.56V103.96C137.433 106.307 138.246 107.48 139.873 107.48C140.646 107.48 141.726 107.173 143.113 106.56L144.313 108.72ZM129.713 81.24C128.353 83.32 127.673 86.04 127.673 89.4C127.673 92.76 128.353 95.4933 129.713 97.6C131.099 99.68 133.166 100.72 135.913 100.72C138.686 100.72 140.766 99.6667 142.153 97.56C143.539 95.4533 144.233 92.7333 144.233 89.4C144.233 86.0667 143.539 83.3467 142.153 81.24C140.766 79.1333 138.686 78.08 135.913 78.08C133.166 78.08 131.099 79.1333 129.713 81.24ZM152.426 83H155.466V95.16C155.466 98.9467 156.812 100.84 159.506 100.84C161.052 100.84 162.452 100.053 163.706 98.48C164.986 96.88 165.666 94.68 165.746 91.88V83H168.786V99L169.186 103L166.546 103.2L165.746 99.08C164.946 100.52 163.932 101.627 162.706 102.4C161.479 103.173 160.239 103.56 158.986 103.56C154.612 103.56 152.426 100.76 152.426 95.16V83ZM182.279 103.56C179.879 103.56 177.893 102.72 176.319 101.04C174.773 99.36 173.999 96.8933 173.999 93.64C173.999 90.3867 174.919 87.7067 176.759 85.6C178.599 83.4933 180.986 82.44 183.919 82.44C185.786 82.44 187.293 83.0133 188.439 84.16C189.586 85.28 190.159 86.6933 190.159 88.4C190.159 90.08 189.279 91.6267 187.519 93.04C185.786 94.4533 183.253 95.16 179.919 95.16C179.039 95.16 178.106 95.12 177.119 95.04C177.306 96.9333 177.879 98.3733 178.839 99.36C179.826 100.347 181.013 100.84 182.399 100.84C184.719 100.84 186.653 100.12 188.199 98.68L189.639 100.64C187.613 102.587 185.159 103.56 182.279 103.56ZM183.799 85.16C181.959 85.16 180.426 85.8133 179.199 87.12C177.999 88.4267 177.293 90.16 177.079 92.32C177.959 92.4533 178.933 92.52 179.999 92.52C182.293 92.52 184.053 92.0933 185.279 91.24C186.506 90.3867 187.119 89.4 187.119 88.28C187.119 87.4533 186.813 86.7333 186.199 86.12C185.613 85.48 184.813 85.16 183.799 85.16ZM194.574 83H197.614V95.16C197.614 98.9467 198.961 100.84 201.654 100.84C203.201 100.84 204.601 100.053 205.854 98.48C207.134 96.88 207.814 94.68 207.894 91.88V83H210.934V99L211.334 103L208.694 103.2L207.894 99.08C207.094 100.52 206.081 101.627 204.854 102.4C203.628 103.173 202.388 103.56 201.134 103.56C196.761 103.56 194.574 100.76 194.574 95.16V83ZM224.428 103.56C222.028 103.56 220.041 102.72 218.468 101.04C216.921 99.36 216.148 96.8933 216.148 93.64C216.148 90.3867 217.068 87.7067 218.908 85.6C220.748 83.4933 223.134 82.44 226.068 82.44C227.934 82.44 229.441 83.0133 230.588 84.16C231.734 85.28 232.308 86.6933 232.308 88.4C232.308 90.08 231.428 91.6267 229.668 93.04C227.934 94.4533 225.401 95.16 222.068 95.16C221.188 95.16 220.254 95.12 219.268 95.04C219.454 96.9333 220.028 98.3733 220.988 99.36C221.974 100.347 223.161 100.84 224.548 100.84C226.868 100.84 228.801 100.12 230.348 98.68L231.788 100.64C229.761 102.587 227.308 103.56 224.428 103.56ZM225.948 85.16C224.108 85.16 222.574 85.8133 221.348 87.12C220.148 88.4267 219.441 90.16 219.228 92.32C220.108 92.4533 221.081 92.52 222.148 92.52C224.441 92.52 226.201 92.0933 227.428 91.24C228.654 90.3867 229.268 89.4 229.268 88.28C229.268 87.4533 228.961 86.7333 228.348 86.12C227.761 85.48 226.961 85.16 225.948 85.16Z" fill="black"/>
<circle cx="65" cy="30" r="30" fill="#FF9E9E"/>
<circle cx="95" cy="30" r="30" fill="#FDFF9E"/>
<circle cx="136" cy="30" r="30" fill="#9EA2FF"/>
<circle cx="166" cy="30" r="30" fill="black"/>
</svg>
